<mxfile host="" modified="2020-05-24T15:21:41.060Z" agent="5.0 (X11; Linux x86_64) AppleWebKit/537.36 (KHTML, like Gecko) Code/1.45.0 Chrome/78.0.3904.130 Electron/7.2.4 Safari/537.36" version="13.1.3" etag="lrwgP8mNOWNbAz78NI_h" pages="2">
            <diagram id="diagramid" name="Diagram">
              <mxGraphModel><root><mxCell id="0"/><mxCell id="1" parent="0"/><mxCell id="2" value="WebSecurityGroup" style="outlineConnect=0;fontColor=#B3B3B3;gradientColor=#F78E04;gradientDirection=north;fillColor=#D05C17;strokeColor=#ffffff;dashed=0;verticalLabelPosition=bottom;verticalAlign=top;align=center;html=1;fontSize=12;fontStyle=0;aspect=fixed;shape=mxgraph.aws4.resourceIcon;resIcon=mxgraph.aws4.ec2;" vertex="1" parent="1"><mxGeometry x="750" y="125" width="50" height="50" as="geometry"/></mxCell><mxCell id="3" value="EC2BasicRole" style="outlineConnect=0;fontColor=#B3B3B3;gradientColor=#F54749;gradientDirection=north;fillColor=#C7131F;strokeColor=#ffffff;dashed=0;verticalLabelPosition=bottom;verticalAlign=top;align=center;html=1;fontSize=12;fontStyle=0;aspect=fixed;shape=mxgraph.aws4.resourceIcon;resIcon=mxgraph.aws4.role;" vertex="1" parent="1"><mxGeometry x="1000" y="26.5625" width="50" height="50" as="geometry"/></mxCell><mxCell id="4" value="WebEC2InstanceProfile" style="outlineConnect=0;fontColor=#B3B3B3;gradientColor=#F54749;gradientDirection=north;fillColor=#C7131F;strokeColor=#ffffff;dashed=0;verticalLabelPosition=bottom;verticalAlign=top;align=center;html=1;fontSize=12;fontStyle=0;aspect=fixed;shape=mxgraph.aws4.resourceIcon;resIcon=mxgraph.aws4.identity_and_access_management;" vertex="1" parent="1"><mxGeometry x="750" y="25" width="50" height="50" as="geometry"/></mxCell><mxCell id="5" value="Web01EC2Instance" style="outlineConnect=0;fontColor=#B3B3B3;gradientColor=#F78E04;gradientDirection=north;fillColor=#D05C17;strokeColor=#ffffff;dashed=0;verticalLabelPosition=bottom;verticalAlign=top;align=center;html=1;fontSize=12;fontStyle=0;aspect=fixed;shape=mxgraph.aws4.resourceIcon;resIcon=mxgraph.aws4.ec2;" vertex="1" parent="1"><mxGeometry x="500" width="50" height="50" as="geometry"/></mxCell><mxCell id="6" value="Web02EC2Instance" style="outlineConnect=0;fontColor=#B3B3B3;gradientColor=#F78E04;gradientDirection=north;fillColor=#D05C17;strokeColor=#ffffff;dashed=0;verticalLabelPosition=bottom;verticalAlign=top;align=center;html=1;fontSize=12;fontStyle=0;aspect=fixed;shape=mxgraph.aws4.resourceIcon;resIcon=mxgraph.aws4.ec2;" vertex="1" parent="1"><mxGeometry x="500" y="100" width="50" height="50" as="geometry"/></mxCell><mxCell id="7" value="WebTargetGroup01" style="outlineConnect=0;fontColor=#B3B3B3;gradientColor=#aaaaaa;gradientDirection=north;fillColor=#aaaaaa;strokeColor=#ffffff;dashed=0;verticalLabelPosition=bottom;verticalAlign=top;align=center;html=1;fontSize=12;fontStyle=0;aspect=fixed;shape=mxgraph.aws4.resourceIcon;resIcon=mxgraph.aws4.elasticloadbalancingv2;" vertex="1" parent="1"><mxGeometry x="250" y="25" width="50" height="50" as="geometry"/></mxCell><mxCell id="8" value="WebALB01" style="outlineConnect=0;fontColor=#B3B3B3;gradientColor=#aaaaaa;gradientDirection=north;fillColor=#aaaaaa;strokeColor=#ffffff;dashed=0;verticalLabelPosition=bottom;verticalAlign=top;align=center;html=1;fontSize=12;fontStyle=0;aspect=fixed;shape=mxgraph.aws4.resourceIcon;resIcon=mxgraph.aws4.elasticloadbalancingv2;" vertex="1" parent="1"><mxGeometry x="250" y="125" width="50" height="50" as="geometry"/></mxCell><mxCell id="9" value="WebALBListener01" style="outlineConnect=0;fontColor=#B3B3B3;gradientColor=#aaaaaa;gradientDirection=north;fillColor=#aaaaaa;strokeColor=#ffffff;dashed=0;verticalLabelPosition=bottom;verticalAlign=top;align=center;html=1;fontSize=12;fontStyle=0;aspect=fixed;shape=mxgraph.aws4.resourceIcon;resIcon=mxgraph.aws4.elasticloadbalancingv2;" vertex="1" parent="1"><mxGeometry y="75" width="50" height="50" as="geometry"/></mxCell><mxCell id="10" value="iam  aws&#xA;policy/amazonssmmanagedinstancecore" style="outlineConnect=0;fontColor=#B3B3B3;gradientColor=#aaaaaa;gradientDirection=north;fillColor=#aaaaaa;strokeColor=#ffffff;dashed=0;verticalLabelPosition=bottom;verticalAlign=top;align=center;html=1;fontSize=12;fontStyle=0;aspect=fixed;shape=mxgraph.aws4.resourceIcon;resIcon=mxgraph.aws4.identity_and_access_management;" vertex="1" parent="1"><mxGeometry x="1250" y="26.5625" width="50" height="50" as="geometry"/></mxCell><mxCell id="iam  aws&#xA;policy/amazonssmmanagedinstancecore|EC2BasicRole" value="ManagedPolicyArns" style="edgeStyle=orthogonalEdgeStyle;rounded=1;orthogonalLoop=1;jettySize=auto;html=1;labelBackgroundColor=none;fontColor=#EA6B66;noEdgeStyle=1;orthogonal=1;" edge="1" parent="1" source="3" target="10"><mxGeometry relative="1" as="geometry"><Array as="points"><mxPoint x="1062" y="51.5625"/><mxPoint x="1238" y="51.5625"/></Array></mxGeometry></mxCell><mxCell id="EC2BasicRole|WebEC2InstanceProfile" value="Roles" style="edgeStyle=orthogonalEdgeStyle;rounded=1;orthogonalLoop=1;jettySize=auto;html=1;labelBackgroundColor=none;fontColor=#EA6B66;noEdgeStyle=1;orthogonal=1;" edge="1" parent="1" source="4" target="3"><mxGeometry relative="1" as="geometry"><Array as="points"><mxPoint x="812" y="50"/><mxPoint x="988" y="51.5625"/></Array></mxGeometry></mxCell><mxCell id="WebSecurityGroup|Web01EC2Instance" value="GroupSet" style="edgeStyle=orthogonalEdgeStyle;rounded=1;orthogonalLoop=1;jettySize=auto;html=1;labelBackgroundColor=none;fontColor=#EA6B66;noEdgeStyle=1;orthogonal=1;" edge="1" parent="1" source="5" target="2"><mxGeometry relative="1" as="geometry"><Array as="points"><mxPoint x="562" y="35"/><mxPoint x="738" y="136.66666666666666"/></Array></mxGeometry></mxCell><mxCell id="WebEC2InstanceProfile|Web01EC2Instance" value="IamInstanceProfile" style="edgeStyle=orthogonalEdgeStyle;rounded=1;orthogonalLoop=1;jettySize=auto;html=1;labelBackgroundColor=none;fontColor=#EA6B66;noEdgeStyle=1;orthogonal=1;" edge="1" parent="1" source="5" target="4"><mxGeometry relative="1" as="geometry"><Array as="points"><mxPoint x="562" y="15"/><mxPoint x="738" y="40"/></Array></mxGeometry></mxCell><mxCell id="WebSecurityGroup|Web02EC2Instance" value="GroupSet" style="edgeStyle=orthogonalEdgeStyle;rounded=1;orthogonalLoop=1;jettySize=auto;html=1;labelBackgroundColor=none;fontColor=#EA6B66;noEdgeStyle=1;orthogonal=1;" edge="1" parent="1" source="6" target="2"><mxGeometry relative="1" as="geometry"><Array as="points"><mxPoint x="562" y="135"/><mxPoint x="736" y="150"/></Array></mxGeometry></mxCell><mxCell id="WebEC2InstanceProfile|Web02EC2Instance" value="IamInstanceProfile" style="edgeStyle=orthogonalEdgeStyle;rounded=1;orthogonalLoop=1;jettySize=auto;html=1;labelBackgroundColor=none;fontColor=#EA6B66;noEdgeStyle=1;orthogonal=1;" edge="1" parent="1" source="6" target="4"><mxGeometry relative="1" as="geometry"><Array as="points"><mxPoint x="562" y="115"/><mxPoint x="738" y="60"/></Array></mxGeometry></mxCell><mxCell id="Web01EC2Instance|WebTargetGroup01" value="Id" style="edgeStyle=orthogonalEdgeStyle;rounded=1;orthogonalLoop=1;jettySize=auto;html=1;labelBackgroundColor=none;fontColor=#EA6B66;noEdgeStyle=1;orthogonal=1;" edge="1" parent="1" source="7" target="5"><mxGeometry relative="1" as="geometry"><Array as="points"><mxPoint x="312" y="40"/><mxPoint x="488" y="25"/></Array></mxGeometry></mxCell><mxCell id="Web02EC2Instance|WebTargetGroup01" value="Id" style="edgeStyle=orthogonalEdgeStyle;rounded=1;orthogonalLoop=1;jettySize=auto;html=1;labelBackgroundColor=none;fontColor=#EA6B66;noEdgeStyle=1;orthogonal=1;" edge="1" parent="1" source="7" target="6"><mxGeometry relative="1" as="geometry"><Array as="points"><mxPoint x="312" y="60"/><mxPoint x="488" y="125"/></Array></mxGeometry></mxCell><mxCell id="WebSecurityGroup|WebALB01" value="SecurityGroups" style="edgeStyle=orthogonalEdgeStyle;rounded=1;orthogonalLoop=1;jettySize=auto;html=1;labelBackgroundColor=none;fontColor=#EA6B66;noEdgeStyle=1;orthogonal=1;" edge="1" parent="1" source="8" target="2"><mxGeometry relative="1" as="geometry"><Array as="points"><mxPoint x="312" y="150"/><mxPoint x="400" y="200"/><mxPoint x="650" y="200"/><mxPoint x="738" y="163.33333333333334"/></Array></mxGeometry></mxCell><mxCell id="WebTargetGroup01|WebALBListener01" value="TargetGroupArn" style="edgeStyle=orthogonalEdgeStyle;rounded=1;orthogonalLoop=1;jettySize=auto;html=1;labelBackgroundColor=none;fontColor=#EA6B66;noEdgeStyle=1;orthogonal=1;" edge="1" parent="1" source="9" target="7"><mxGeometry relative="1" as="geometry"><Array as="points"><mxPoint x="62" y="90"/><mxPoint x="238" y="50"/></Array></mxGeometry></mxCell><mxCell id="WebALB01|WebALBListener01" value="LoadBalancerArn" style="edgeStyle=orthogonalEdgeStyle;rounded=1;orthogonalLoop=1;jettySize=auto;html=1;labelBackgroundColor=none;fontColor=#EA6B66;noEdgeStyle=1;orthogonal=1;" edge="1" parent="1" source="9" target="8"><mxGeometry relative="1" as="geometry"><Array as="points"><mxPoint x="62" y="110"/><mxPoint x="238" y="150"/></Array></mxGeometry></mxCell></root></mxGraphModel>
            </diagram>
          </mxfile>